<svg width="24" height="25" viewBox="0 0 24 25" fill="none" xmlns="http://www.w3.org/2000/svg">
<path id="Home" d="M8.36374 23.4722C8.3739 23.4689 8.38077 23.4594 8.38077 23.4487V19.6445C8.38077 18.6688 9.1859 17.8779 10.1791 17.8779H13.8096C14.2866 17.8779 14.744 18.064 15.0812 18.3953C15.4185 18.7266 15.6079 19.176 15.6079 19.6445V23.4667C15.6049 23.8723 15.7668 24.2623 16.0577 24.5502C16.3486 24.8381 16.7445 25 17.1574 25H19.6343C20.7911 25.0029 21.9016 24.5535 22.7206 23.751C23.5397 22.9485 24 21.8587 24 20.7223V9.83357C24 8.91557 23.5858 8.0448 22.869 7.45583L14.443 0.844836C12.9773 -0.314298 10.8772 -0.276872 9.45523 0.933723L1.22149 7.45583C0.47083 8.02744 0.0221713 8.90079 0 9.83357V20.7112C0 23.0798 1.95459 25 4.36569 25H6.78605C7.63759 25 8.33076 24.3298 8.34661 23.4956C8.34681 23.485 8.35365 23.4755 8.36374 23.4722Z" fill="white"/>
</svg>
